<svg aria-hidden="true" style="position: absolute; width: 0; height: 0; overflow: hidden;" version="1.1" xmlns="http://www.w3.org/2000/svg" xmlns:xlink="http://www.w3.org/1999/xlink">
<defs>
<symbol id="icon-article" viewBox="0 0 26 32">
<path d="M7.112 18.135c0-0.785 0.637-1.422 1.422-1.422h8.533c0.785 0 1.422 0.637 1.422 1.422s-0.637 1.422-1.422 1.422h-8.533c-0.785 0-1.422-0.637-1.422-1.422z"></path>
<path d="M7.112 23.468c0-0.785 0.637-1.422 1.422-1.422h4.267c0.785 0 1.422 0.637 1.422 1.422s-0.637 1.422-1.422 1.422h-4.267c-0.785 0-1.422-0.637-1.422-1.422z"></path>
<path d="M8.596 1.129c0.267-0.267 0.628-0.417 1.006-0.417h9.6c3.142 0 5.689 2.547 5.689 5.689v19.2c0 3.142-2.547 5.689-5.689 5.689h-12.8c-3.142 0-5.689-2.547-5.689-5.689l0-16c0-0.377 0.15-0.739 0.417-1.006l7.467-7.467zM9.246 4.502v4.744h-4.744l4.744-4.744zM3.557 12.090l-0 13.511c0 1.571 1.273 2.845 2.844 2.845h12.8c1.571 0 2.844-1.274 2.844-2.844v-19.2c0-1.571-1.273-2.844-2.844-2.844h-7.111v7.111c0 0.785-0.637 1.422-1.422 1.422h-7.111z"></path>
</symbol>
<symbol id="icon-cross" viewBox="0 0 32 32">
<path d="M0.586 0.586c0.781-0.781 2.047-0.781 2.828 0l12.586 12.586 12.586-12.586c0.781-0.781 2.047-0.781 2.828 0s0.781 2.047 0 2.828l-12.586 12.586 12.586 12.586c0.781 0.781 0.781 2.047 0 2.828s-2.047 0.781-2.828 0l-12.586-12.586-12.586 12.586c-0.781 0.781-2.047 0.781-2.828 0s-0.781-2.047 0-2.828l12.586-12.586-12.586-12.586c-0.781-0.781-0.781-2.047 0-2.828z"></path>
</symbol>
<symbol id="icon-dialog" viewBox="0 0 37 32">
<path d="M33.406 13.818c-0.217 1.504-0.731 2.933-1.494 4.247 0.057 0.325 0.086 0.654 0.086 0.985 0 1.147-0.332 2.245-0.948 3.243-0.307 0.498-0.387 1.081-0.417 1.467-0.035 0.442-0.023 0.925 0.008 1.389 0.035 0.521 0.099 1.068 0.173 1.584-0.595-0.173-1.24-0.347-1.855-0.486-0.512-0.115-1.035-0.214-1.51-0.263-0.414-0.043-1.011-0.076-1.546 0.097-1.169 0.378-2.455 0.589-3.811 0.589-1.612 0-3.093-0.286-4.39-0.783-0.312 0.014-0.627 0.021-0.943 0.021-1.836 0-3.602-0.241-5.255-0.688 2.403 2.779 6.364 4.497 10.589 4.497 1.65 0 3.234-0.253 4.694-0.719 0.003 0 0.007 0 0.014 0 0.038-0.001 0.142-0.003 0.336 0.017 0.306 0.032 0.699 0.102 1.152 0.204 0.903 0.204 1.917 0.504 2.707 0.755 1.676 0.532 3.301-0.931 3.001-2.632-0.129-0.732-0.263-1.626-0.315-2.4-0.026-0.389-0.029-0.709-0.011-0.943 0.008-0.097 0.018-0.158 0.024-0.19 0.857-1.42 1.351-3.037 1.351-4.759 0-1.941-0.603-3.713-1.64-5.231z"></path>
<path d="M8.528 6.399c-2.054 1.571-3.196 3.633-3.196 5.793 0 1.077 0.28 2.115 0.807 3.080 0.2 0.368 0.257 0.747 0.278 1.003 0.022 0.28 0.011 0.567-0.013 0.836-0.049 0.538-0.165 1.149-0.304 1.75-0.163 0.703-0.372 1.453-0.584 2.156 0.805-0.293 1.685-0.592 2.519-0.836 0.674-0.197 1.355-0.367 1.961-0.463 0.522-0.083 1.279-0.164 1.931 0.062 1.463 0.506 3.1 0.792 4.835 0.792 3.272 0 6.178-1.016 8.233-2.588 2.054-1.571 3.196-3.633 3.196-5.793s-1.142-4.223-3.196-5.793c-2.055-1.572-4.961-2.588-8.233-2.588s-6.178 1.016-8.233 2.588zM6.677 3.978c2.632-2.013 6.203-3.214 10.084-3.214s7.452 1.201 10.084 3.214c2.634 2.014 4.392 4.905 4.392 8.214s-1.758 6.2-4.392 8.214c-2.632 2.013-6.203 3.214-10.084 3.214-2.047 0-4.001-0.334-5.776-0.941-0.002 0.005-0.146-0.009-0.514 0.049-0.425 0.067-0.967 0.199-1.583 0.378-1.227 0.358-2.606 0.865-3.656 1.273-1.819 0.708-3.672-1.039-3.059-2.9 0.325-0.986 0.708-2.233 0.958-3.309 0.126-0.542 0.207-0.998 0.238-1.335 0.011-0.117 0.013-0.203 0.013-0.26-0.701-1.34-1.096-2.822-1.096-4.385 0-3.31 1.758-6.2 4.392-8.214z"></path>
</symbol>
<symbol id="icon-iPhone" viewBox="0 0 32 32">
<path d="M11.335 3.897c-1.105 0-2 0.895-2 2v20.208c0 1.105 0.895 2 2 2h9.333c1.105 0 2-0.895 2-2v-20.208c0-1.105-0.895-2-2-2h-0.111l-0.325 0.779c-0.207 0.497-0.692 0.82-1.231 0.82h-6c-0.538 0-1.024-0.324-1.231-0.82l-0.325-0.779h-0.111zM6.668 5.897c0-2.577 2.089-4.667 4.667-4.667h9.333c2.577 0 4.667 2.089 4.667 4.667v20.208c0 2.577-2.089 4.667-4.667 4.667h-9.333c-2.577 0-4.667-2.089-4.667-4.667v-20.208z"></path>
</symbol>
<symbol id="icon-like" viewBox="0 0 32 32">
<path d="M18.91 4.335c-0.186 0-0.358 0.099-0.453 0.26l-0.008 0.014-6.115 9.914v13.146h11.448c0.246 0 0.458-0.171 0.511-0.41l0.005-0.021 3.4-13.28c0.062-0.322-0.184-0.623-0.514-0.623h-5.183c-0.868 0-1.747-0.29-2.387-0.914-0.672-0.656-0.984-1.596-0.784-2.609l0.958-4.851c0.064-0.324-0.184-0.625-0.514-0.625h-0.365zM9.668 27.668v-12.191h-4.725c-0.288 0-0.522 0.232-0.524 0.52 0 0 0 0 0 0l-0.085 11.143c-0.002 0.291 0.233 0.528 0.524 0.528h4.81zM10.257 12.811l5.907-9.576c0.574-0.97 1.618-1.567 2.746-1.567h0.365c2.010 0 3.52 1.837 3.13 3.809l-0.959 4.851c-0.017 0.086-0.006 0.126-0.003 0.134s0.009 0.026 0.034 0.049c0.056 0.054 0.222 0.156 0.524 0.156h5.183c2.041 0 3.557 1.89 3.114 3.883l-0.005 0.021-3.402 13.288c-0.333 1.447-1.622 2.475-3.109 2.475h-18.924c-1.771 0-3.204-1.443-3.19-3.215 0 0 0 0 0 0l0.085-11.143c0.013-1.752 1.438-3.166 3.19-3.166h5.314z"></path>
</symbol>
<symbol id="icon-logoIcon" viewBox="0 0 35 32">
<path d="M15.521 13.92l-9.92-12.96c-0.64-0.64-1.44-0.96-2.24-0.96s-1.6 0.32-2.24 0.96c-1.12 1.28-1.12 3.2 0 4.48l7.84 10.56-7.84 10.56c-1.12 1.28-1.12 3.2 0 4.48 0.64 0.64 1.44 0.96 2.24 0.96s1.6-0.32 2.24-0.96l9.92-12.96c1.12-0.96 1.12-2.88 0-4.16z"></path>
<path d="M19.75 13.92l9.92-12.96c0.64-0.64 1.44-0.96 2.24-0.96s1.6 0.32 2.24 0.96c1.12 1.28 1.12 3.2 0 4.48l-7.84 10.56 7.84 10.56c1.12 1.28 1.12 3.2 0 4.48-0.64 0.64-1.44 0.96-2.24 0.96s-1.6-0.32-2.24-0.96l-9.92-12.96c-1.12-0.96-1.12-2.88 0-4.16z"></path>
</symbol>
<symbol id="icon-Mail" viewBox="0 0 32 32">
<path d="M30.335 23.999v-14.667c0-2.209-1.791-4-4-4l-20.667 0c-2.209 0-4 1.791-4 4v14.667c0 2.209 1.791 4 4 4h20.667c2.209 0 4-1.791 4-4zM27.668 12.345v11.654c0 0.736-0.597 1.333-1.333 1.333h-20.667c-0.736 0-1.333-0.597-1.333-1.333v-11.654l9.418 6.404c1.357 0.923 3.141 0.923 4.498 0l9.417-6.404zM27.653 9.13l-10.902 7.413c-0.452 0.308-1.047 0.308-1.499 0l-10.902-7.413c0.097-0.64 0.65-1.131 1.318-1.131l20.667-0c0.668 0 1.221 0.491 1.318 1.131z"></path>
</symbol>
<symbol id="icon-micro" viewBox="0 0 23 32">
<path d="M4.016 8.973c0-4.020 3.259-7.278 7.278-7.278s7.278 3.259 7.278 7.278v6.024c0 4.020-3.259 7.278-7.278 7.278s-7.278-3.259-7.278-7.278v-6.024zM11.294 4.205c-2.634 0-4.769 2.135-4.769 4.769v6.024c0 2.634 2.135 4.769 4.769 4.769s4.769-2.135 4.769-4.769v-6.024c0-2.634-2.135-4.769-4.769-4.769z"></path>
<path d="M1.255 11.734c0.693 0 1.255 0.562 1.255 1.255v2.008c0 4.851 3.933 8.784 8.784 8.784s8.784-3.933 8.784-8.784v-2.008c0-0.693 0.562-1.255 1.255-1.255s1.255 0.562 1.255 1.255v2.008c0 6.238-5.057 11.294-11.294 11.294s-11.294-5.057-11.294-11.294v-2.008c0-0.693 0.562-1.255 1.255-1.255z"></path>
<path d="M11.294 24.785c0.693 0 1.255 0.562 1.255 1.255v1.757h2.761c0.693 0 1.255 0.562 1.255 1.255s-0.562 1.255-1.255 1.255h-8.031c-0.693 0-1.255-0.562-1.255-1.255s0.562-1.255 1.255-1.255h2.761v-1.757c0-0.693 0.562-1.255 1.255-1.255z"></path>
</symbol>
<symbol id="icon-papers" viewBox="0 0 32 32">
<path d="M15.403 1.473c0.375-0.188 0.817-0.188 1.193 0l13.333 6.667c0.452 0.226 0.737 0.688 0.737 1.193s-0.285 0.967-0.737 1.193l-13.333 6.667c-0.375 0.188-0.817 0.188-1.193 0l-13.333-6.667c-0.452-0.226-0.737-0.688-0.737-1.193s0.285-0.967 0.737-1.193l13.333-6.667zM5.647 9.332l10.352 5.176 10.352-5.176-10.352-5.176-10.352 5.176z"></path>
<path d="M1.473 15.402c0.329-0.659 1.13-0.926 1.789-0.596l12.737 6.368 12.737-6.368c0.659-0.329 1.46-0.062 1.789 0.596s0.062 1.46-0.596 1.789l-13.333 6.667c-0.375 0.188-0.817 0.188-1.193 0l-13.333-6.667c-0.659-0.329-0.926-1.13-0.596-1.789z"></path>
<path d="M1.473 22.069c0.329-0.659 1.13-0.926 1.789-0.596l12.737 6.369 12.737-6.369c0.659-0.329 1.46-0.062 1.789 0.596s0.062 1.46-0.596 1.789l-13.333 6.667c-0.375 0.188-0.817 0.188-1.193 0l-13.333-6.667c-0.659-0.329-0.926-1.13-0.596-1.789z"></path>
</symbol>
<symbol id="icon-Star" viewBox="0 0 32 32">
<path d="M13.558 2.934c0.926-2.136 3.956-2.136 4.882 0l2.802 6.462 7.012 0.668c2.318 0.221 3.254 3.102 1.509 4.643l-5.28 4.662 1.531 6.875c0.506 2.273-1.945 4.053-3.95 2.87l-6.065-3.581-6.065 3.581c-2.005 1.184-4.456-0.597-3.95-2.87l1.531-6.875-5.28-4.662c-1.745-1.541-0.809-4.422 1.509-4.643l7.012-0.668 2.802-6.462zM18.801 10.455l-2.802-6.462-2.802 6.462c-0.386 0.889-1.224 1.498-2.189 1.59l-7.012 0.668 5.28 4.662c0.726 0.641 1.047 1.627 0.836 2.573l-1.531 6.875 6.065-3.581c0.834-0.493 1.871-0.493 2.705 0l6.065 3.581-1.531-6.875c-0.211-0.946 0.11-1.932 0.836-2.573l5.28-4.662-7.012-0.668c-0.965-0.092-1.803-0.701-2.189-1.59z"></path>
</symbol>
<symbol id="icon-video" viewBox="0 0 34 32">
<path d="M22.851 13.739c1.489 1.138 1.489 3.381 0 4.52l-6.514 4.979c-1.872 1.43-4.572 0.096-4.572-2.26v-9.957c0-2.356 2.7-3.691 4.572-2.26l6.514 4.978zM21.123 15.999l-6.514-4.978v9.957l6.514-4.978z"></path>
<path d="M17.065 3.199c-7.069 0-12.8 5.731-12.8 12.8s5.731 12.8 12.8 12.8c7.069 0 12.8-5.731 12.8-12.8s-5.731-12.8-12.8-12.8zM1.421 15.999c0-8.64 7.004-15.644 15.644-15.644s15.644 7.004 15.644 15.644c0 8.64-7.004 15.644-15.644 15.644s-15.644-7.004-15.644-15.644z"></path>
</symbol>
<symbol id="icon-list2" viewBox="0 0 32 32">
<path d="M12 2h20v4h-20v-4zM12 14h20v4h-20v-4zM12 26h20v4h-20v-4zM0 4c0-2.209 1.791-4 4-4s4 1.791 4 4c0 2.209-1.791 4-4 4s-4-1.791-4-4zM0 16c0-2.209 1.791-4 4-4s4 1.791 4 4c0 2.209-1.791 4-4 4s-4-1.791-4-4zM0 28c0-2.209 1.791-4 4-4s4 1.791 4 4c0 2.209-1.791 4-4 4s-4-1.791-4-4z"></path>
</symbol>
</defs>
</svg>
