<svg aria-hidden="true" style="position: absolute; width: 0; height: 0; overflow: hidden;" version="1.1" xmlns="http://www.w3.org/2000/svg" xmlns:xlink="http://www.w3.org/1999/xlink">
<defs>
<symbol id="icon-BurgerClose" viewBox="0 0 37 32">
<path d="M7.459 3.152l23.498 23.498c0.721 0.721 0.721 1.89 0 2.611s-1.89 0.721-2.611 0l-23.498-23.498c-0.721-0.721-0.721-1.89 0-2.611s1.89-0.721 2.611 0z"></path>
<path d="M4.998 26.387l23.498-23.498c0.721-0.721 1.89-0.721 2.611 0s0.721 1.89 0 2.611l-23.498 23.498c-0.721 0.721-1.89 0.721-2.611 0s-0.721-1.89 0-2.611z"></path>
</symbol>
<symbol id="icon-BurgerOpen" viewBox="0 0 64 32">
<path d="M3.2-1.067h57.6c1.767 0 3.2 1.433 3.2 3.2s-1.433 3.2-3.2 3.2h-57.6c-1.767 0-3.2-1.433-3.2-3.2s1.433-3.2 3.2-3.2z"></path>
<path d="M3.2 24.533h57.6c1.767 0 3.2 1.433 3.2 3.2s-1.433 3.2-3.2 3.2h-57.6c-1.767 0-3.2-1.433-3.2-3.2s1.433-3.2 3.2-3.2z"></path>
</symbol>
<symbol id="icon-ModalCloseDesk" viewBox="0 0 32 32">
<path d="M0.633 0.936c0.844-0.84 2.212-0.84 3.056 0l27.503 27.39c0.844 0.84 0.844 2.203 0 3.043s-2.212 0.84-3.056 0l-27.504-27.39c-0.844-0.84-0.844-2.203 0-3.043z"></path>
<path d="M0.808 31.064c-0.844-0.84-0.844-2.203 0-3.043l27.503-27.39c0.844-0.84 2.212-0.84 3.056 0s0.844 2.203 0 3.043l-27.503 27.39c-0.844 0.84-2.212 0.84-3.056 0z"></path>
</symbol>
<symbol id="icon-ModalCloseMob" viewBox="0 0 32 32">
<path d="M3.608 0.636c-0.825-0.849-2.163-0.849-2.989 0s-0.825 2.224 0 3.073l12.392 11.841-12.392 12.741c-0.825 0.849-0.825 2.224 0 3.073s2.163 0.848 2.989 0l12.392-12.741 12.392 12.741c0.825 0.848 2.163 0.848 2.989 0s0.825-2.224 0-3.073l-12.392-12.741 12.392-11.841c0.825-0.849 0.825-2.224 0-3.073s-2.163-0.849-2.989 0l-12.392 11.841-12.392-11.841z"></path>
</symbol>
<symbol id="icon-OKDesk" viewBox="0 0 32 32">
<path d="M21.437 9.572c-0.262-0.261-0.686-0.261-0.948 0l-6.65 6.657-1.903-2.017c-0.127-0.137-0.304-0.215-0.491-0.215s-0.364 0.078-0.491 0.215l-2.387 2.562c-0.252 0.26-0.252 0.674 0 0.934l4.754 4.761c0.127 0.126 0.299 0.196 0.477 0.195 0.179 0.001 0.35-0.069 0.477-0.195l9.548-9.568c0.127-0.126 0.199-0.298 0.199-0.477s-0.072-0.351-0.199-0.477l-2.387-2.373zM13.812 21.003l-3.819-3.826 1.453-1.56 1.889 2.017c0.127 0.131 0.302 0.205 0.484 0.205s0.357-0.074 0.484-0.205l6.663-6.67 1.432 1.432-8.586 8.606z"></path>
<path d="M16.2 2.667c-3.536 0-6.927 1.405-9.428 3.905s-3.905 5.892-3.905 9.428c0 3.536 1.405 6.927 3.905 9.428s5.892 3.905 9.428 3.905 6.927-1.405 9.428-3.905c2.5-2.501 3.905-5.892 3.905-9.428-0.003-3.535-1.409-6.925-3.909-9.424s-5.889-3.906-9.424-3.909l0 0zM16.2 27.982c-3.18 0-6.23-1.264-8.478-3.513s-3.511-5.299-3.511-8.479 1.264-6.23 3.514-8.478c2.249-2.248 5.3-3.51 8.479-3.509s6.229 1.265 8.477 3.515c2.248 2.249 3.509 5.3 3.507 8.48-0.004 3.179-1.268 6.226-3.515 8.473s-5.295 3.512-8.473 3.515l-0-0.006z"></path>
</symbol>
<symbol id="icon-OKMob" viewBox="0 0 33 32">
<path d="M21.637 9.572c-0.262-0.261-0.686-0.261-0.948 0l-6.65 6.657-1.903-2.017c-0.127-0.137-0.304-0.215-0.491-0.215s-0.364 0.078-0.491 0.215l-2.387 2.562c-0.252 0.26-0.252 0.674 0 0.934l4.754 4.761c0.127 0.126 0.299 0.196 0.477 0.195 0.179 0.001 0.35-0.069 0.477-0.195l9.548-9.568c0.127-0.126 0.199-0.298 0.199-0.477s-0.072-0.351-0.199-0.477l-2.387-2.373zM14.012 21.002l-3.819-3.826 1.453-1.56 1.889 2.017c0.127 0.131 0.302 0.205 0.484 0.205s0.357-0.074 0.484-0.205l6.663-6.67 1.432 1.432-8.586 8.606z"></path>
<path d="M16.4 2.667c-3.536 0-6.928 1.405-9.428 3.905s-3.905 5.892-3.905 9.428 1.405 6.927 3.905 9.428c2.501 2.5 5.892 3.905 9.428 3.905s6.927-1.405 9.428-3.905c2.5-2.501 3.905-5.892 3.905-9.428-0.003-3.535-1.409-6.925-3.909-9.424s-5.889-3.906-9.424-3.909l0 0zM16.4 27.982c-3.18 0-6.23-1.264-8.478-3.512s-3.511-5.299-3.511-8.479c0-3.18 1.264-6.23 3.514-8.477s5.3-3.51 8.48-3.509c3.18 0.001 6.229 1.265 8.477 3.515s3.509 5.3 3.507 8.48c-0.004 3.179-1.268 6.226-3.515 8.473s-5.295 3.512-8.473 3.515l-0-0.006z"></path>
</symbol>
</defs>
</svg>
